<svg width="938" height="938" viewBox="0 0 938 938" fill="none" xmlns="http://www.w3.org/2000/svg">
<path d="M468.863 0C727.809 0 937.726 209.917 937.727 468.863C937.727 727.809 727.809 937.727 468.863 937.727C209.917 937.726 0 727.809 0 468.863C6.5974e-05 209.917 209.917 6.60082e-05 468.863 0ZM222.573 493.604C161.294 554.884 161.294 654.238 222.573 715.518C283.853 776.797 383.207 776.797 444.486 715.518L555.001 605.001L333.089 383.088L222.573 493.604ZM715.519 222.571C654.239 161.292 554.885 161.292 493.605 222.571L387.294 328.882L609.207 550.795L715.519 444.484C776.798 383.205 776.798 283.851 715.519 222.571Z" fill="white"/>
</svg>
